<svg xmlns="http://www.w3.org/2000/svg" xmlns:xlink="http://www.w3.org/1999/xlink" viewBox="0 0 181.27 65.52"><defs><style>.cls-1,.cls-2{fill:none;}.cls-2,.cls-7{stroke:#000;stroke-miterlimit:10;}.cls-3{fill:#a2a9aa;}.cls-4{fill:#1b1c1c;}.cls-5{fill:#525454;}.cls-6{opacity:0.91;}.cls-7{stroke-width:1.2px;fill:url(#SOwn_pattern);}</style><pattern id="SOwn_pattern" data-name="SOwn pattern" width="180.57" height="203.42" patternTransform="translate(61.47 -59.73) scale(0.03)" patternUnits="userSpaceOnUse" viewBox="0 0 180.57 203.42"><rect class="cls-1" width="180.57" height="203.42"/><path d="M134.41,248.82c12,0,21.78-21.88,21.78-48.88H112.63C112.63,226.94,122.38,248.82,134.41,248.82Z"/><path d="M47.3,248.82c12,0,21.78-21.88,21.78-48.88H25.52C25.52,226.94,35.27,248.82,47.3,248.82Z"/><path d="M202.67,50.33c0-25.08-10.79-45.41-24.08-45.41V95.73C191.88,95.73,202.67,75.4,202.67,50.33Z"/><path d="M202.35,148.65c0-25.08-10.64-45.41-23.76-45.41v90.81C191.71,194.05,202.35,173.72,202.35,148.65Z"/><path class="cls-2" d="M69.08,50.57C69.08,75.65,78.83,96,90.85,96s21.78-20.33,21.78-45.41-9.75-45.4-21.78-45.4S69.08,25.5,69.08,50.57Zm0,52.42c0-25.08-9.76-45.4-21.78-45.4S25.52,77.91,25.52,103s9.75,45.4,21.78,45.4S69.08,128.06,69.08,103Zm43.55,45.4c0-25.07-9.75-45.4-21.78-45.4s-21.77,20.33-21.77,45.4,9.75,45.41,21.77,45.41S112.63,173.47,112.63,148.39Zm43.56-49.46c0-25.08-9.75-45.41-21.78-45.41s-21.78,20.33-21.78,45.41,9.75,45.4,21.78,45.4S156.19,124,156.19,98.93Z"/><ellipse class="cls-3" cx="90.85" cy="50.57" rx="21.78" ry="45.4"/><ellipse cx="90.85" cy="148.39" rx="21.78" ry="45.4"/><ellipse class="cls-4" cx="134.41" cy="98.93" rx="21.78" ry="45.4"/><ellipse class="cls-5" cx="47.3" cy="102.99" rx="21.78" ry="45.4"/><path d="M134.41,45.4c12,0,21.78-21.88,21.78-48.87H112.63C112.63,23.52,122.38,45.4,134.41,45.4Z"/><path d="M134.41,152.45c-12,0-21.78,21.43-21.78,47.85,0,1,0,2.09.05,3.12h43.46c0-1,.05-2.07.05-3.12C156.19,173.88,146.44,152.45,134.41,152.45Z"/><path d="M47.3,155.41c-12,0-21.78,21.49-21.78,48H69.08C69.08,176.9,59.32,155.41,47.3,155.41Z"/><path d="M47.3,45.4c12,0,21.78-21.88,21.78-48.87H25.52C25.52,23.52,35.27,45.4,47.3,45.4Z"/><path d="M158.47,50.33c0,25.07,9.89,45.4,22.1,45.4V4.92C168.36,4.92,158.47,25.25,158.47,50.33Z"/><path d="M156.19,148.65c0,25.07,10.92,45.4,24.38,45.4V103.24C167.11,103.24,156.19,123.57,156.19,148.65Z"/><path d="M22.1,50.33C22.1,25.25,11.32,4.92-2,4.92V95.73C11.32,95.73,22.1,75.4,22.1,50.33Z"/><path d="M21.78,148.65c0-25.08-10.64-45.41-23.76-45.41v90.81C11.14,194.05,21.78,173.72,21.78,148.65Z"/></pattern></defs><title>LogoBOG2</title><g id="Layer_2" data-name="Layer 2"><g id="Layer_1-2" data-name="Layer 1"><g class="cls-6"><path class="cls-7" d="M27.93,5.55V8a13.85,13.85,0,0,1,5.34-3.28A15.37,15.37,0,0,0,27.93,5.55Z"/><path class="cls-7" d="M44.73,18.83a2.84,2.84,0,0,1-1.21-.06,15.08,15.08,0,0,1-.88,3.4,11.55,11.55,0,0,1-3.19,4.6l-.15.12c1.19.69,2.42,1.34,3.6,2a36.46,36.46,0,0,0,3.6-4.12,20,20,0,0,0,2.82-5.1h0A7.88,7.88,0,0,0,44.73,18.83Z"/><path class="cls-7" d="M24.05,22.89A14.88,14.88,0,0,1,27.93,8V5.55a15.37,15.37,0,0,1,5.34-.86A14.45,14.45,0,0,1,36.46,4L35.15,2.54a33.87,33.87,0,0,0-3.49-.06q-2.32.09-4.68.33c-1.58.17-3.12.31-4.61.42s-2.94.15-4.35.12a16.58,16.58,0,0,1-4.18-.62,1.66,1.66,0,0,0,1.2.79,8,8,0,0,1,1.28.29,3.51,3.51,0,0,1,.87.2,5.1,5.1,0,0,0,.87.29,3.13,3.13,0,0,1,1.87,1,5,5,0,0,1,.78,3.27V20.12A17.83,17.83,0,0,0,24.05,22.89Z"/><path class="cls-7" d="M27.93,55.37v-6a30.79,30.79,0,0,1-7.22-6.54v10a18.41,18.41,0,0,0,7.48,3.56A9.15,9.15,0,0,1,27.93,55.37Z"/><path class="cls-7" d="M19.47,61.92a3.16,3.16,0,0,1-.79.71,7.07,7.07,0,0,1-1,.53,10.25,10.25,0,0,1-1.33.46c-.5.14-1.13.35-1.9.62H27.68a20.06,20.06,0,0,1-7.46-3.79A4.52,4.52,0,0,1,19.47,61.92Z"/><path class="cls-7" d="M54.79,40.2a17.3,17.3,0,0,0-4.27-5.88c3.39,3.4,5,7.79,5,13.24-.35,8.69-8.81,14.74-17.24,16.68h2.86a19.9,19.9,0,0,0,8.08-3.65,18,18,0,0,0,5-6,17.24,17.24,0,0,0,1.9-7.18A16.43,16.43,0,0,0,54.79,40.2Z"/><path class="cls-7" d="M17.51,15c-.68-1.42.32-1.28,1.42-1.76-1.26-1.26-3.24-.81-4.2.86-.12.22-.31.57-.48.58-2.69-.38-1.59,8.19-1.62,10a40.59,40.59,0,0,0,8.08,18.11V20.12A15.61,15.61,0,0,1,17.51,15Z"/><path class="cls-7" d="M31.16,64.87a24.6,24.6,0,0,0,7.09-.63H27.68A20,20,0,0,0,31.16,64.87Z"/><path class="cls-7" d="M50.11,33.94l.41.38a20.71,20.71,0,0,0-4.61-3.45,27.42,27.42,0,0,0-3-2c-.32.32-.63.63-1,.94A20.16,20.16,0,0,1,50.11,33.94Z"/><path class="cls-7" d="M39.18,54.43l.08-.26c-1.29-1.65-2.57-3.31-3.85-5l.25-.2c1.17.84,2.07,2.24,3.68,2,0-1.9-1.23-3.31-1.93-5.19,1.45.2,2.58.78,3.92.47-1.12-2.17-2.94-3.95-3.73-6.36-1-2.13-2.23-4.17-3.15-6.35l.36-.28c1.21,1.25,2.51,2.43,3.61,3.78C43.93,43.05,44.17,57,33.57,56.6a18.32,18.32,0,0,1-5.38-.26,7.81,7.81,0,0,0,1.77,3,9.17,9.17,0,0,0,3.61,2.37,11.52,11.52,0,0,0,4.47.62,11.06,11.06,0,0,0,4.56-1.25A12.84,12.84,0,0,0,46.5,58,12.11,12.11,0,0,0,49,52.8a15.56,15.56,0,0,0,.2-5.43,18,18,0,0,0-1.65-5.51,19.62,19.62,0,0,0-3.45-4.93A16.88,16.88,0,0,0,39,33.24a12.57,12.57,0,0,0-5.18-1.33c-2-.11-3.91-.17-5.84-.17V49.32c.28.18.55.37.83.54C32.09,51.68,35.35,53.89,39.18,54.43Z"/><path class="cls-7" d="M20.71,55.62V52.78c-5.51-4.15-8.79-9.46-16.39-4.32-.05-1,.56-2.08-.44-3C3,49.18,1.72,52.59.63,56.24a3.36,3.36,0,0,0,.12,1.2l.35.06C2.06,55.46,4,54.63,6,54l-.13-.35-1.17-.27c7.12-9.05,9.75,1,14.27,5.93a16,16,0,0,0,1.28,1.18,5.4,5.4,0,0,0,.2-.77A20.92,20.92,0,0,0,20.71,55.62Z"/><path class="cls-7" d="M32.33,19c-.82-2.09,1.39-8.57,4.13-5.87L35.27,14l1.83.86-1.23.75a11.52,11.52,0,0,0,3.24.87c1.77.09,2.78,1.88,4.41,2.32a13.77,13.77,0,0,0,.16-2,14.29,14.29,0,0,0-1-5.39,11,11,0,0,0-3-4.27,10.32,10.32,0,0,0-4.94-2.24,10.5,10.5,0,0,0-1.41-.15A13.85,13.85,0,0,0,27.93,8V28.84c1,0,2,0,3.15,0s2.18-.09,3.23-.21a14.6,14.6,0,0,0,2.9-.58,5.82,5.82,0,0,0,2.09-1.12C36.06,25,33.11,22.86,32.33,19Z"/><path class="cls-7" d="M40.73,3.68a15.47,15.47,0,0,1,4,2.28,17.84,17.84,0,0,1,3.56,3.9A10.39,10.39,0,0,1,50,14.67a11.79,11.79,0,0,1-.7,5c1.54.66,2.67,1.24,3.22.06s1.09-2.42.34-3.76c-1.45-2.59-2.87-5.21-4.34-7.8-1.37-2.06-2.13-4.41-4-6.08.34.87.65,2.25,1,3-1.1-.69-1.84-2.13-3-2.75a7.85,7.85,0,0,1,.8,2.33,10.81,10.81,0,0,0-2.55-2.9c.41.62.82,1.24,1.24,1.85C40.41,3,39.94,2,37.8,1.57l1.33,1.61c-1.41-.33-2.57-1.15-4.27-1l.29.32,1.15.11A18,18,0,0,1,40.73,3.68Z"/><path class="cls-7" d="M89.52,19.17a12.5,12.5,0,0,1-1.82,5.47,12.88,12.88,0,0,1-4.4,4.23A20.82,20.82,0,0,1,76,31.4a10.49,10.49,0,0,1-3.4,0A14.5,14.5,0,0,1,69,30.3a18.6,18.6,0,0,1-3.44-2,17.62,17.62,0,0,1-3-2.76,16.39,16.39,0,0,1-2.24-3.42,11.66,11.66,0,0,1-1.14-3.91,17,17,0,0,1,.21-5.83,12.47,12.47,0,0,1,2.24-4.87A14.08,14.08,0,0,1,66,3.81a22.7,22.7,0,0,1,6.62-2.36,12,12,0,0,1,5.41.08A14.5,14.5,0,0,1,83,3.77a15.25,15.25,0,0,1,3.84,4A15.54,15.54,0,0,1,89.08,13,19.67,19.67,0,0,1,89.52,19.17ZM81,28.39a10.76,10.76,0,0,0,3.19-3.56,14.51,14.51,0,0,0,1.6-4.67,17.37,17.37,0,0,0,.1-5.14,18.49,18.49,0,0,0-1.35-5,13.35,13.35,0,0,0-2.73-4.11,10.84,10.84,0,0,0-4-2.61,10.51,10.51,0,0,0-5.25-.45,11.06,11.06,0,0,0-4.93,1.9,11.37,11.37,0,0,0-3.23,3.55,13.42,13.42,0,0,0-1.58,4.6,17.72,17.72,0,0,0-.06,5,17.29,17.29,0,0,0,1.39,4.87,13.84,13.84,0,0,0,2.77,4.06,11.54,11.54,0,0,0,4,2.63,11,11,0,0,0,5.23.59A10,10,0,0,0,81,28.39Z"/><path class="cls-7" d="M114.53,31.57l-2.15,0-2.41,0-2.4,0-2.2,0a2.52,2.52,0,0,1,.39-.18l.6-.23a6.18,6.18,0,0,0,.57-.27.87.87,0,0,0,.33-.25l-3.9-10.16H94.94l-.35.91c-.18.45-.39,1-.62,1.6s-.47,1.28-.72,2-.47,1.39-.67,2.05-.38,1.25-.5,1.77a5.68,5.68,0,0,0-.2,1.18,1.1,1.1,0,0,0,.64,1.1,5.35,5.35,0,0,0,1.57.41v.08l-7.35-.16a2.55,2.55,0,0,1-.61.08,2.15,2.15,0,0,1-.7-.15L86.74,31a6,6,0,0,0,1.84-.93,3.52,3.52,0,0,0,1.29-1.77q2.28-6.49,4.7-12.91T99.46,2.43l.25.35c.14.21.33.51.56.89s.42.75.58,1.08c.23.6.45,1.18.65,1.76L102.05,8l3.9,10q2,5.28,4.52,11.08a3.55,3.55,0,0,0,.6.85,4,4,0,0,0,.87.77,3.74,3.74,0,0,0,1.23.5,11.71,11.71,0,0,0,1.36.23ZM99.19,8.39a.88.88,0,0,0-.39.19c-.21.69-.44,1.47-.72,2.34s-.56,1.76-.86,2.68l-.93,2.8c-.31.94-.62,1.84-.93,2.69h7.42Z"/><path class="cls-7" d="M139.84,32.48a7.28,7.28,0,0,1-2.71-.23,7.46,7.46,0,0,1-2.26-1.12,14.49,14.49,0,0,1-2-1.76,24.9,24.9,0,0,1-1.76-2.15c-.55-.76-1.09-1.51-1.6-2.26s-1.08-1.47-1.61-2.16A11.33,11.33,0,0,0,126.27,21a3.41,3.41,0,0,0-1.48-.71A9.5,9.5,0,0,0,123,20a11.59,11.59,0,0,0-1.58,0,8.18,8.18,0,0,0-.86.09v7.61a6.42,6.42,0,0,0,.1.84c.07.37.14.74.23,1.12a9.16,9.16,0,0,0,.31,1q.18.45.33.48a4.71,4.71,0,0,0,1.12.39q.66.15,1.08.21l.51.06h-3.79c-1,0-2.12,0-3.27,0s-2.14,0-3-.09l1-.2.62-.15a1.31,1.31,0,0,0,.82-.43,2.31,2.31,0,0,0,.46-1,10.14,10.14,0,0,0,.15-2V6a2.41,2.41,0,0,0-.42-1.66,2.27,2.27,0,0,0-1-.58l-.54-.14a3.31,3.31,0,0,1-.5-.13l-.43-.08a.43.43,0,0,1-.31-.27c1,0,2.08,0,3.13,0s2,.07,2.75,0c.56,0,1.16,0,1.79,0s1.29,0,2,0,1.33,0,2,.08a12,12,0,0,1,2,.31,10.1,10.1,0,0,1,1.83.62,5.67,5.67,0,0,1,1.59,1,6.24,6.24,0,0,1,1.23,1.6A7.41,7.41,0,0,1,133,9a6.53,6.53,0,0,1,0,2.17,9.72,9.72,0,0,1-.74,2.49,13.64,13.64,0,0,1-1.52,2.61,19.79,19.79,0,0,1-2.28,2.55c.46.51.94,1.09,1.45,1.74s1,1.32,1.52,2.05,1.1,1.49,1.68,2.24,1.17,1.48,1.76,2.2A24.43,24.43,0,0,0,136.73,29a11.76,11.76,0,0,0,2,1.55,7.75,7.75,0,0,0,2.12.92,5.38,5.38,0,0,0,2.3.1A11,11,0,0,1,139.84,32.48ZM129.21,15.15a9.11,9.11,0,0,0,.5-3.27,10.57,10.57,0,0,0-.63-3.36,7.47,7.47,0,0,0-1.76-2.78,6.22,6.22,0,0,0-2.86-1.57,6.89,6.89,0,0,0-3.91.35V18q1.78.23,2.94.27a20,20,0,0,0,2.32-.06,2.94,2.94,0,0,0,1.7-.56A5.36,5.36,0,0,0,129.21,15.15Z"/><path class="cls-7" d="M171.9,18.63a12.22,12.22,0,0,1-.6,3.92,11.67,11.67,0,0,1-2,3.59,18.31,18.31,0,0,1-3.52,3.34A12.29,12.29,0,0,1,163.3,31a15.18,15.18,0,0,1-2.74.91,19.05,19.05,0,0,1-2.92.44c-1,.08-2,.12-3,.12-2,0-4-.14-6.05-.33a50.07,50.07,0,0,0-6-.21,11.11,11.11,0,0,0,1.43-.41,2.4,2.4,0,0,0,.95-.61,2.65,2.65,0,0,0,.54-1.13,8.51,8.51,0,0,0,.17-1.87V5.91a2,2,0,0,0-.46-1.47,2.65,2.65,0,0,0-1-.58,3.29,3.29,0,0,1-.58-.19c-.18-.08-.35-.14-.5-.19a2.05,2.05,0,0,0-.39,0,.26.26,0,0,1-.23-.19q.81,0,1.74.09c.62.07,1.44.11,2.47.14s2.35,0,3.94,0,3.64-.12,6.11-.27a10.71,10.71,0,0,1,4,.63,17.56,17.56,0,0,1,4.36,2.21A17.09,17.09,0,0,1,169,9.6a12.47,12.47,0,0,1,2.32,4.7A18,18,0,0,1,171.9,18.63Zm-6.24-8.35a12.62,12.62,0,0,0-2.78-2.82,14.13,14.13,0,0,0-3.42-1.84,17.16,17.16,0,0,0-3.67-.92,16.82,16.82,0,0,0-3.6-.12,13.15,13.15,0,0,0-3.15.6V26.35a6.68,6.68,0,0,1,.14,1.07,8.59,8.59,0,0,0,.09,1,3.68,3.68,0,0,0,.18.89,1.22,1.22,0,0,0,.48.62,6.48,6.48,0,0,0,2,.85,11.69,11.69,0,0,0,2.3.31,18.18,18.18,0,0,0,2.34-.08c.77-.08,1.48-.18,2.12-.31a9.37,9.37,0,0,0,1.78-.46,18,18,0,0,0,1.93-.85,11.78,11.78,0,0,0,1.78-1.14,7.57,7.57,0,0,0,1.35-1.37,14.06,14.06,0,0,0,1.68-3.17,13.76,13.76,0,0,0,.78-3.27,16,16,0,0,0,0-3.25,22.84,22.84,0,0,0-.56-3.07A11.7,11.7,0,0,0,165.66,10.28Z"/><path class="cls-7" d="M76.49,17.26a3.91,3.91,0,0,1-2,3.1,6.43,6.43,0,0,1-2.34.81,3.32,3.32,0,0,1-1.09,0,4.53,4.53,0,0,1-1.14-.35,5.61,5.61,0,0,1-1.11-.64,5.28,5.28,0,0,1-1-.88,5.49,5.49,0,0,1-.72-1.1A3.83,3.83,0,0,1,66.78,17a5.21,5.21,0,0,1,.07-1.86,3.83,3.83,0,0,1,.71-1.56A4.45,4.45,0,0,1,69,12.34a7.51,7.51,0,0,1,2.12-.76,3.93,3.93,0,0,1,1.74,0,4.75,4.75,0,0,1,1.57.71,5,5,0,0,1,1.23,1.27,5.26,5.26,0,0,1,.73,1.68A6.48,6.48,0,0,1,76.49,17.26Zm-2.74,2.95a3.47,3.47,0,0,0,1-1.14,4.59,4.59,0,0,0,.51-1.5,5.84,5.84,0,0,0-.4-3.23A4.33,4.33,0,0,0,74,13a3.69,3.69,0,0,0-1.29-.84,3.77,3.77,0,0,0-3.26.47,3.53,3.53,0,0,0-1,1.14,4.2,4.2,0,0,0-.5,1.47,5.43,5.43,0,0,0,0,1.61,5.67,5.67,0,0,0,.44,1.56,4.29,4.29,0,0,0,.89,1.3,3.55,3.55,0,0,0,3,1A3.24,3.24,0,0,0,73.75,20.21Z"/><path class="cls-7" d="M81.85,12.11c0,.16-.08.33-.11.51s0,.21-.06.33-.05.22-.06.3a1.32,1.32,0,0,0,0,.13,3.16,3.16,0,0,0-.3-.54,1.94,1.94,0,0,0-.33-.37.72.72,0,0,0-.42-.18,1.77,1.77,0,0,0-.46,0l-.49.05-.47.05-.44,0v3.46H81a.56.56,0,0,0,.27-.11,1.26,1.26,0,0,0,.31-.25q-.09.38-.15.72c0,.24-.06.45-.08.63s0,.39,0,.62a1.85,1.85,0,0,0-.07-.57.77.77,0,0,0-.52-.53,1.68,1.68,0,0,0-.39-.07,3.08,3.08,0,0,0-.43,0l-.45,0-.4,0a2.25,2.25,0,0,1-.38,0v3.37a4,4,0,0,0,0,.5,1,1,0,0,0,.13.41.75.75,0,0,0,.33.27,1.26,1.26,0,0,0,.62.07v0c-.5,0-1,0-1.52,0s-1.06,0-1.63-.05l.31-.06.2,0a.5.5,0,0,0,.26-.14.63.63,0,0,0,.15-.33,3.53,3.53,0,0,0,.05-.66v-7a.78.78,0,0,0-.1-.46.69.69,0,0,0-.25-.2L77.12,12a.75.75,0,0,0-.18-.07l-.18,0a.66.66,0,0,1-.22-.08h.39l.7,0h3.55l.38,0a1.28,1.28,0,0,0,.37-.14C81.91,11.81,81.88,12,81.85,12.11Z"/><path class="cls-7" d="M87.78,49.85l-.44.13a3.12,3.12,0,0,0-1.3.75,2,2,0,0,0-.5,1.44v9.34A9.47,9.47,0,0,1,82.62,63a22.38,22.38,0,0,1-3.85.83,26,26,0,0,1-4.15.16,19.55,19.55,0,0,1-3.86-.53,11.34,11.34,0,0,1-4.14-2,13.24,13.24,0,0,1-3.09-3.29A15.69,15.69,0,0,1,61.59,54a16.28,16.28,0,0,1-.71-4.53A14.69,14.69,0,0,1,61.5,45a12.49,12.49,0,0,1,2-4.05,15,15,0,0,1,2.69-2.71A13.29,13.29,0,0,1,69,36.59a12.86,12.86,0,0,1,2.75-.83c.9-.16,1.76-.29,2.6-.38A16.73,16.73,0,0,1,77,35.3c.92.05,1.87.14,2.85.26l2.91.38,2.91.39a22.21,22.21,0,0,1-.37,3.2c-.19,1-.35,2-.47,3a6.9,6.9,0,0,0-3.13-4.83,8.19,8.19,0,0,0-2.56-1.06,13,13,0,0,0-2.82-.35,12.67,12.67,0,0,0-2.76.26,13.1,13.1,0,0,0-2.42.71,11,11,0,0,0-3.82,2.58A11.23,11.23,0,0,0,65,43.5a12,12,0,0,0-.86,4.28,13.58,13.58,0,0,0,.64,4.5,15,15,0,0,0,2.17,4.29,15.47,15.47,0,0,0,3.76,3.62,9.16,9.16,0,0,0,2.39,1.08,15.82,15.82,0,0,0,3.3.66,11.72,11.72,0,0,0,3.36-.15,4.74,4.74,0,0,0,2.62-1.34V52.06a5.06,5.06,0,0,0-.06-.87,1.18,1.18,0,0,0-.18-.52.73.73,0,0,0-.38-.27c-.17-.06-.39-.13-.66-.2l-.4-.09L80.15,50l-.53-.13a1.32,1.32,0,0,1-.41-.18l4.52,0c1.58,0,3.12,0,4.63,0Z"/><path class="cls-7" d="M113.07,62.75l-2,0-2.29,0h-2.27c-.75,0-1.45,0-2.08,0a1.6,1.6,0,0,1,.36-.16l.57-.22a5.76,5.76,0,0,0,.55-.26.85.85,0,0,0,.31-.23l-3.7-9.63h-8c0,.15-.16.43-.33.86s-.37.93-.59,1.52-.44,1.21-.68,1.88-.44,1.32-.64,1.94-.35,1.19-.47,1.69a5.32,5.32,0,0,0-.18,1.11,1,1,0,0,0,.6,1,4.75,4.75,0,0,0,1.48.39v.07l-6.95-.14a2.38,2.38,0,0,1-.59.07,2,2,0,0,1-.66-.15l1.25-.4a5.71,5.71,0,0,0,1.74-.88,3.32,3.32,0,0,0,1.22-1.68q2.16-6.15,4.45-12.22T98.8,35.16a3.6,3.6,0,0,1,.23.33q.21.28.54.84a11.52,11.52,0,0,1,.54,1c.22.56.43,1.12.63,1.67s.36,1,.51,1.44Q103,45,104.94,50c1.3,3.33,2.72,6.83,4.29,10.48a3.2,3.2,0,0,0,.56.81,3.84,3.84,0,0,0,.83.73,3.6,3.6,0,0,0,1.17.48,12.26,12.26,0,0,0,1.28.22Zm-14.53-22a.75.75,0,0,0-.36.19l-.68,2.21c-.26.82-.53,1.67-.83,2.54l-.87,2.66c-.3.89-.59,1.74-.88,2.54h7Z"/><path class="cls-7" d="M143.8,62.94a33.75,33.75,0,0,1-3.77-.07,5,5,0,0,0,.18-1.32c0-.59,0-1.26,0-2s-.07-1.62-.15-2.55-.15-1.87-.25-2.85c-.2-1.93-.41-3.91-.64-6s-.41-3.91-.53-5.59q-1,1.78-2.07,4c-.74,1.46-1.48,2.94-2.19,4.44s-1.42,3-2.09,4.37l-1.79,3.79c-.53,1.11-1.1,2.34-1.71,3.68q-1.17-1.83-1.95-3.18c-.53-.91-1.08-1.86-1.65-2.86s-1-1.89-1.41-2.67c-.71-1.56-1.47-3.26-2.3-5.1s-1.86-4-3.08-6.32c-.15,1.59-.33,3.16-.55,4.7s-.42,3.11-.62,4.67-.33,3.16-.4,4.72a39.19,39.19,0,0,0,.07,4.72.62.62,0,0,0,.33.46,5.2,5.2,0,0,0,.7.31,2.18,2.18,0,0,0,.44.11,2.34,2.34,0,0,1,.4.11l.38.15a1.21,1.21,0,0,1,.35.25c-.64,0-1.39,0-2.27,0h-2.52c-.81,0-1.77,0-2.9,0a10.39,10.39,0,0,1,1.5-.44,1.11,1.11,0,0,0,.52-.18.83.83,0,0,0,.29-.55q.48-2.41.88-5.58t.78-6.7q.39-3.52.77-7.23t.79-7.13a7.05,7.05,0,0,1,.86,1.17c.35.56.75,1.26,1.19,2.09s.92,1.76,1.45,2.79,1.06,2.15,1.62,3.32,1.14,2.36,1.74,3.58L126,51.61l1.7,3.52q.82,1.69,1.59,3.12l1.26-2.67q.72-1.5,1.5-3.18c.53-1.12,1.06-2.27,1.61-3.46s1.11-2.36,1.67-3.53,1.06-2.3,1.59-3.38,1-2.09,1.46-3,.86-1.73,1.23-2.42.67-1.23.91-1.59c.3,2.32.55,4.41.77,6.29s.41,3.57.55,5.07.28,2.84.39,4,.2,2.22.27,3.14.15,1.75.24,2.46.18,1.35.27,1.94.22,1.12.35,1.61a9.92,9.92,0,0,0,.53,1.46,1.78,1.78,0,0,0,.48.69,2.18,2.18,0,0,0,.64.41,4.13,4.13,0,0,0,.73.22l.79.14a6.36,6.36,0,0,1,1.17.41C146.36,62.87,145.07,62.89,143.8,62.94Z"/><path class="cls-7" d="M163.74,59.8c-.07.5-.14,1-.22,1.47s-.16,1-.25,1.74a.71.71,0,0,0-.48-.15.42.42,0,0,1-.15,0,.11.11,0,0,0-.07,0v0l-5-.07-3.48-.06-2.28,0-1.5,0c-.42,0-.79,0-1.12.07l-1.08.13V63a3,3,0,0,0,1.48-.38,2.78,2.78,0,0,0,.9-.87,3.1,3.1,0,0,0,.44-1.13,7,7,0,0,0,.11-1.17V38.49a1.86,1.86,0,0,0-.48-1.37,3.16,3.16,0,0,0-1-.74,6.82,6.82,0,0,0-1.56-.38v-.07h14.38a.63.63,0,0,0,.32-.08,1.86,1.86,0,0,1,.31-.14l.29-.15c0,.34-.12.8-.22,1.37s-.2,1.13-.31,1.67-.25,1.19-.42,2A5.12,5.12,0,0,0,162,39a2.53,2.53,0,0,0-.68-1,2.55,2.55,0,0,0-1-.53,6.53,6.53,0,0,0-1.12-.24,7.72,7.72,0,0,0-1.28,0l-1.31.08c-.44,0-.87,0-1.28,0a11.66,11.66,0,0,1-1.21-.09V47.93c.8.07,1.51.11,2.12.11s1.26,0,1.94-.07a10.3,10.3,0,0,0,1.87-.3l.64-.14a2.94,2.94,0,0,0,.6-.26l.4-.22.3-.18a2,2,0,0,0,.31-.33q.16-.23.45-.66c-.05.37-.1.84-.16,1.41s-.12,1.16-.18,1.77-.13,1.21-.21,1.78-.12,1-.14,1.44a1.29,1.29,0,0,1-.29-.51,1.53,1.53,0,0,1-.19-.58c-.07-.22-.15-.44-.23-.66A1.45,1.45,0,0,0,161,50a1.84,1.84,0,0,0-1-.42c-.5-.09-1.08-.15-1.74-.2s-1.31-.08-2-.08h-2V59.71a4.58,4.58,0,0,0,2.09,1.81,6.48,6.48,0,0,0,3,.66,5.49,5.49,0,0,0,2.89-.84,4.11,4.11,0,0,0,1.78-2.73H164C163.89,58.91,163.82,59.3,163.74,59.8Z"/><path class="cls-7" d="M180.65,56.57a6,6,0,0,1-1,2.76,7.84,7.84,0,0,1-2.1,2.12,12.75,12.75,0,0,1-2.79,1.45,12.14,12.14,0,0,1-3,.69,7.81,7.81,0,0,1-2.69-.15,3.9,3.9,0,0,1-1.92-1,2.54,2.54,0,0,1-.66-2c0-.29.07-.58.13-.88s.13-.58.2-.88.14-.57.2-.84.12-.53.17-.8h.07a4.22,4.22,0,0,0,.81,3.24A5.08,5.08,0,0,0,170.75,62a6.46,6.46,0,0,0,3.33.08A5.41,5.41,0,0,0,177,60.23a4.2,4.2,0,0,0,.95-1.85,4,4,0,0,0-.09-1.87,6.8,6.8,0,0,0-.9-1.87,14.34,14.34,0,0,0-1.5-1.88c-.56-.64-1.18-1.27-1.85-1.9l-2-1.91c-.66-.63-1.29-1.27-1.88-1.92a15.21,15.21,0,0,1-1.56-2A6.29,6.29,0,0,1,167,41.91a4.89,4.89,0,0,1,.58-2.71,5.91,5.91,0,0,1,2-2.1,11.26,11.26,0,0,1,3-1.38,13.47,13.47,0,0,1,3.59-.51,13.8,13.8,0,0,1,3.77.5c0,.46-.12.93-.22,1.41a8.45,8.45,0,0,0-.18,1.37,10.19,10.19,0,0,0,.07,1.28,1.21,1.21,0,0,1-.33,1,4.14,4.14,0,0,0-.58-2.25,4.25,4.25,0,0,0-1.52-1.46,5.55,5.55,0,0,0-2-.66,5.1,5.1,0,0,0-2.14.2,4.42,4.42,0,0,0-1.83,1.14,4.1,4.1,0,0,0-1.1,2.08,4.45,4.45,0,0,0,0,1.92,5.7,5.7,0,0,0,.71,1.72A10.3,10.3,0,0,0,172,45.09a22.14,22.14,0,0,0,1.63,1.56c.61.51,1.22,1,1.84,1.52a20.8,20.8,0,0,1,1.78,1.59,17.83,17.83,0,0,1,1.59,1.68A8.58,8.58,0,0,1,180,53.27,6.38,6.38,0,0,1,180.65,56.57Z"/><path class="cls-7" d="M48.18,14.17c-.55.44-1.93-1.32-1.28-1.61C48.32,11.9,48.74,13.73,48.18,14.17Z"/></g></g></g></svg>