<svg xmlns="http://www.w3.org/2000/svg" viewBox="0 0 247.13 87.47"><defs><style>.cls-1{fill:none;}</style></defs><title>LogoBOG</title><g id="Layer_2" data-name="Layer 2"><g id="Layer_1-2" data-name="Layer 1"><path class="cls-1" d="M57.7,28.8a21.31,21.31,0,0,0,1.2-4.66c-2.24-.61-3.62-3.07-6-3.19a14.88,14.88,0,0,1-4.45-1.2l1.7-1-2.52-1.18,1.64-1.12c-3.77-3.69-6.81,5.19-5.68,8.07,1.07,5.26,5.12,8.22,9.57,10.78a1.66,1.66,0,0,0,.21-.16A16,16,0,0,0,57.7,28.8Z"/><path class="cls-1" d="M37.87,75.7a24.78,24.78,0,0,0,7.38.35c14.54.57,14.21-18.59,6.65-26.73-1.5-1.85-3.29-3.47-4.95-5.19l-.49.38c1.25,3,2.95,5.8,4.32,8.72C51.87,56.54,54.35,59,55.9,62c-1.84.43-3.4-.37-5.38-.64,1,2.57,2.64,4.51,2.65,7.11-2.21.29-3.45-1.64-5.06-2.8l-.33.29,5.27,6.8-.1.35c-5.26-.73-9.73-3.77-14.3-6.26-.39-.24-.77-.49-1.15-.74v8.3A13.65,13.65,0,0,0,37.87,75.7Z"/><path class="cls-1" d="M37.5,6V9.31a19.21,19.21,0,0,1,7.34-4.49A21.15,21.15,0,0,0,37.5,6Z"/><path d="M60.56,24.22a3.8,3.8,0,0,1-1.66-.08,21.31,21.31,0,0,1-1.2,4.66,16,16,0,0,1-4.38,6.32,1.66,1.66,0,0,1-.21.16c1.64.94,3.32,1.84,4.94,2.77A52.61,52.61,0,0,0,63,32.39a27.85,27.85,0,0,0,3.87-7v0A10.84,10.84,0,0,0,60.56,24.22Z"/><path d="M32.18,29.79A20.43,20.43,0,0,1,37.5,9.31V6a21.15,21.15,0,0,1,7.34-1.17,18.81,18.81,0,0,1,4.38-.9l-1.8-2q-2.4-.17-4.8-.09-3.18.12-6.42.46c-2.17.22-4.27.41-6.32.57s-4,.21-6,.17a23.06,23.06,0,0,1-5.75-.86,2.3,2.3,0,0,0,1.65,1.09,11.42,11.42,0,0,1,1.77.39,5,5,0,0,1,1.19.29,9.43,9.43,0,0,0,1.2.39,4.34,4.34,0,0,1,2.56,1.43c.71.8,1.07,2.29,1.07,4.49V26A24.49,24.49,0,0,0,32.18,29.79Z"/><path d="M37.5,74.37v-8.3a42.3,42.3,0,0,1-9.9-9V70.81A25.25,25.25,0,0,0,37.87,75.7,13.65,13.65,0,0,1,37.5,74.37Z"/><path d="M25.9,83.36a4.55,4.55,0,0,1-1.08,1,10.46,10.46,0,0,1-1.42.73,14.77,14.77,0,0,1-1.82.63c-.69.19-1.56.47-2.62.85H37.17a27.18,27.18,0,0,1-10.24-5.21A6.34,6.34,0,0,1,25.9,83.36Z"/><path d="M74.37,53.55a23.71,23.71,0,0,0-5.86-8.07c4.65,4.67,6.86,10.69,6.83,18.16-.49,11.94-12.1,20.24-23.67,22.9h3.92a27.37,27.37,0,0,0,11.1-5,24.71,24.71,0,0,0,6.88-8.19,23.84,23.84,0,0,0,2.62-9.85A22.55,22.55,0,0,0,74.37,53.55Z"/><path d="M23.2,18.93c-.92-2,.44-1.76,2-2.42-1.73-1.72-4.45-1.11-5.76,1.18-.18.3-.44.79-.67.79C15,18,16.56,29.73,16.51,32.24A55.66,55.66,0,0,0,27.6,57.09V26A21.45,21.45,0,0,1,23.2,18.93Z"/><path d="M41.94,87.4a33.23,33.23,0,0,0,9.73-.86H37.17A27.32,27.32,0,0,0,41.94,87.4Z"/><path d="M67.94,45c.2.17.38.34.57.52a28.34,28.34,0,0,0-6.33-4.73,33,33,0,0,0-4.13-2.7c-.43.42-.86.85-1.32,1.28A27.61,27.61,0,0,1,67.94,45Z"/><path d="M53,73.07l.1-.35-5.27-6.8.33-.29c1.61,1.16,2.85,3.09,5.06,2.8,0-2.6-1.69-4.54-2.65-7.11,2,.27,3.54,1.07,5.38.64-1.55-3-4-5.42-5.12-8.73-1.37-2.92-3.07-5.72-4.32-8.72l.49-.38c1.66,1.72,3.45,3.34,4.95,5.19,7.56,8.14,7.89,27.3-6.65,26.73a24.78,24.78,0,0,1-7.38-.35,10.62,10.62,0,0,0,2.42,4.19,12.62,12.62,0,0,0,5,3.24,15.54,15.54,0,0,0,6.15.85,15.12,15.12,0,0,0,6.25-1.7A18.14,18.14,0,0,0,63,78a16.51,16.51,0,0,0,3.41-7.11,21.21,21.21,0,0,0,.29-7.45,24.68,24.68,0,0,0-2.28-7.57,27,27,0,0,0-4.72-6.76,23.19,23.19,0,0,0-7-5.07,17.47,17.47,0,0,0-7.12-1.82q-4-.22-8-.23V66.07c.38.25.76.5,1.15.74C43.22,69.3,47.69,72.34,53,73.07Z"/><path d="M27.6,74.71v-3.9c-7.57-5.7-12.06-13-22.5-5.92C5,63.48,5.87,62,4.5,60.75c-1.23,5.13-3,9.8-4.45,14.81A4.52,4.52,0,0,0,.2,77.21l.48.08C2,74.49,4.6,73.35,7.36,72.43L7.19,72l-1.6-.37C15.35,59.16,19,73,25.16,79.72a22.53,22.53,0,0,0,1.77,1.61c.1-.33.2-.67.28-1A30.15,30.15,0,0,0,27.6,74.71Z"/><path d="M43.54,24.5c-1.13-2.88,1.91-11.76,5.68-8.07l-1.64,1.12,2.52,1.18-1.7,1A14.88,14.88,0,0,0,52.85,21c2.43.12,3.81,2.58,6,3.19a20.17,20.17,0,0,0,.22-2.79A19.8,19.8,0,0,0,57.7,14,14.91,14.91,0,0,0,53.55,8.1,14.18,14.18,0,0,0,46.77,5a15,15,0,0,0-1.93-.2A19.21,19.21,0,0,0,37.5,9.31V38c1.37,0,2.81,0,4.33-.05s3-.14,4.44-.29a20.46,20.46,0,0,0,4-.8,8.11,8.11,0,0,0,2.86-1.54C48.66,32.72,44.61,29.76,43.54,24.5Z"/><path d="M55.08,3.43A20.75,20.75,0,0,1,60.6,6.56a24.32,24.32,0,0,1,4.89,5.35,14.21,14.21,0,0,1,2.33,6.6,16.08,16.08,0,0,1-1,6.86c2.12.91,3.67,1.71,4.42.08s1.5-3.32.47-5.15c-2-3.57-3.94-7.16-6-10.71-1.89-2.83-2.93-6-5.54-8.35.47,1.2.9,3.09,1.31,4.16C60.05,4.46,59,2.48,57.39,1.64a10.6,10.6,0,0,1,1.1,3.19,14.52,14.52,0,0,0-3.5-4c.57.85,1.13,1.7,1.7,2.54-2-.89-2.7-2.25-5.63-2.86.64.78,1.23,1.49,1.81,2.21C51,2.29,49.35,1.17,47,1.42l.4.45c.52,0,1,.08,1.58.14A25.07,25.07,0,0,1,55.08,3.43Z"/><path d="M122,24.69a17.24,17.24,0,0,1-2.49,7.5A17.89,17.89,0,0,1,113.49,38a28.62,28.62,0,0,1-10,3.47,14,14,0,0,1-4.66,0A19.81,19.81,0,0,1,93.87,40a26,26,0,0,1-4.72-2.73,24,24,0,0,1-4.08-3.79A22.54,22.54,0,0,1,82,28.74a16.16,16.16,0,0,1-1.56-5.35,23.59,23.59,0,0,1,.29-8A17,17,0,0,1,83.8,8.7a19.33,19.33,0,0,1,6-5.09A31.31,31.31,0,0,1,98.88.37a16.49,16.49,0,0,1,7.43.11A19.87,19.87,0,0,1,113,3.55a21.34,21.34,0,0,1,8.38,12.62A26.5,26.5,0,0,1,122,24.69ZM110.29,37.33a14.66,14.66,0,0,0,4.37-4.87,19.93,19.93,0,0,0,2.2-6.42,24.13,24.13,0,0,0,.13-7,25.43,25.43,0,0,0-1.85-6.82,18.74,18.74,0,0,0-3.74-5.65,15.09,15.09,0,0,0-5.52-3.58,14.57,14.57,0,0,0-7.21-.61,15.14,15.14,0,0,0-6.76,2.6,15.59,15.59,0,0,0-4.43,4.88,18.11,18.11,0,0,0-2.17,6.31A24.68,24.68,0,0,0,85.23,23a23.48,23.48,0,0,0,1.91,6.69,18.94,18.94,0,0,0,3.79,5.56,15.51,15.51,0,0,0,5.54,3.61,15.22,15.22,0,0,0,7.19.82A13.78,13.78,0,0,0,110.29,37.33Z"/><path d="M156.35,41.7l-2.94,0c-1.08,0-2.18,0-3.32,0l-3.28,0-3,0a3.11,3.11,0,0,1,.53-.24c.25-.09.52-.19.83-.32a6.54,6.54,0,0,0,.79-.37,1.29,1.29,0,0,0,.45-.34L141,26.59H129.46c-.07.21-.23.63-.47,1.25s-.53,1.35-.85,2.2-.65,1.76-1,2.73-.65,1.91-.93,2.81-.51,1.72-.69,2.44a7.23,7.23,0,0,0-.26,1.62,1.51,1.51,0,0,0,.87,1.51,7.4,7.4,0,0,0,2.15.55v.11l-10.08-.21a3.47,3.47,0,0,1-.85.1,3,3,0,0,1-1-.21l1.8-.58a8.3,8.3,0,0,0,2.52-1.27,5,5,0,0,0,1.78-2.44q3.12-8.91,6.44-17.72t6.71-17.76s.15.19.34.48.45.69.77,1.22a14.84,14.84,0,0,1,.8,1.48c.32.82.62,1.62.9,2.41l.74,2.1q2.55,6.52,5.36,13.76t6.2,15.19a5.06,5.06,0,0,0,.82,1.17,5.92,5.92,0,0,0,1.2,1.06,5.1,5.1,0,0,0,1.69.69c.64.14,1.26.25,1.86.32Zm-21-31.81a1.24,1.24,0,0,0-.53.26c-.29,1-.61,2-1,3.21s-.77,2.41-1.2,3.69-.85,2.55-1.27,3.84-.85,2.52-1.27,3.69h10.18Z"/><path d="M191.09,43a9.62,9.62,0,0,1-3.72-.32,10.09,10.09,0,0,1-3.1-1.53,19.47,19.47,0,0,1-2.68-2.42,33.09,33.09,0,0,1-2.41-2.94c-.76-1-1.49-2.08-2.2-3.1s-1.48-2-2.2-3a16.36,16.36,0,0,0-2.31-2.49,4.75,4.75,0,0,0-2-1,13.21,13.21,0,0,0-2.47-.34,15.31,15.31,0,0,0-2.17,0,9.19,9.19,0,0,0-1.17.13V36.45a7.64,7.64,0,0,0,.14,1.15c.08.51.19,1,.31,1.53a11.33,11.33,0,0,0,.43,1.38c.16.41.31.63.45.67a6.92,6.92,0,0,0,1.54.52c.6.15,1.09.24,1.48.3l.69.08h-5.2l-4.48,0c-1.57,0-2.94-.06-4.11-.13l1.33-.27.85-.21a1.78,1.78,0,0,0,1.11-.58,3.19,3.19,0,0,0,.64-1.41,13.64,13.64,0,0,0,.21-2.78V6.55a3.24,3.24,0,0,0-.58-2.28,3.07,3.07,0,0,0-1.33-.8l-.74-.19a5.75,5.75,0,0,1-.69-.18L156.08,3a.63.63,0,0,1-.42-.37c1.41,0,2.85,0,4.3.06s2.7.08,3.76,0c.78,0,1.6,0,2.47,0s1.76-.06,2.68-.06,1.82,0,2.73.11a17.25,17.25,0,0,1,2.67.42,14.35,14.35,0,0,1,2.52.85A8,8,0,0,1,179,5.43a8.57,8.57,0,0,1,1.69,2.2,9.92,9.92,0,0,1,1,3.1,8.9,8.9,0,0,1,0,3,13.77,13.77,0,0,1-1,3.43,18.55,18.55,0,0,1-2.1,3.57,24.59,24.59,0,0,1-3.13,3.5c.64.71,1.3,1.51,2,2.39s1.39,1.82,2.1,2.81,1.51,2.05,2.31,3.08,1.59,2,2.41,3a35.85,35.85,0,0,0,2.52,2.68,16,16,0,0,0,2.7,2.12,10.57,10.57,0,0,0,2.92,1.27,7.39,7.39,0,0,0,3.15.13A15.07,15.07,0,0,1,191.09,43ZM176.5,19.17a12.41,12.41,0,0,0,.69-4.48,14.37,14.37,0,0,0-.87-4.62,10.27,10.27,0,0,0-2.42-3.82A8.4,8.4,0,0,0,170,4.11a9.37,9.37,0,0,0-5.36.47V23c1.63.21,3,.34,4,.37a28.14,28.14,0,0,0,3.18-.08,4.14,4.14,0,0,0,2.34-.77A7.31,7.31,0,0,0,176.5,19.17Z"/><path d="M235.09,23.94a16.91,16.91,0,0,1-.82,5.38,16.11,16.11,0,0,1-2.71,4.93,25.46,25.46,0,0,1-4.83,4.59,17.91,17.91,0,0,1-3.44,2,21.07,21.07,0,0,1-3.77,1.24,26.63,26.63,0,0,1-4,.61c-1.36.11-2.73.16-4.11.16q-4.14,0-8.3-.45a66.63,66.63,0,0,0-8.19-.29,16.17,16.17,0,0,0,2-.56,3.1,3.1,0,0,0,1.3-.85,3.53,3.53,0,0,0,.74-1.53,11.23,11.23,0,0,0,.24-2.58V6.49a2.62,2.62,0,0,0-.64-2,3.35,3.35,0,0,0-1.38-.8,5.63,5.63,0,0,1-.79-.26q-.37-.17-.69-.27a4,4,0,0,0-.53,0c-.14,0-.25-.09-.32-.27A22.89,22.89,0,0,1,197.2,3c.84.09,2,.15,3.39.18s3.22,0,5.41,0,5-.16,8.38-.37a14.83,14.83,0,0,1,5.54.88,23.94,23.94,0,0,1,11.16,7.9A17.15,17.15,0,0,1,234.27,18,25.82,25.82,0,0,1,235.09,23.94Zm-8.57-11.46a17.54,17.54,0,0,0-3.82-3.87A18.76,18.76,0,0,0,218,6.1a23.91,23.91,0,0,0-5-1.28A23.4,23.4,0,0,0,208,4.66a18.53,18.53,0,0,0-4.32.82V34.55A7.37,7.37,0,0,1,203.9,36a13,13,0,0,0,.14,1.41,4.4,4.4,0,0,0,.24,1.22,1.63,1.63,0,0,0,.66.85,8.54,8.54,0,0,0,2.76,1.16,15.62,15.62,0,0,0,3.15.43,24.48,24.48,0,0,0,3.21-.11,28,28,0,0,0,2.92-.42,12.84,12.84,0,0,0,2.44-.64,22.57,22.57,0,0,0,2.65-1.17,15.87,15.87,0,0,0,2.44-1.56,9.65,9.65,0,0,0,1.85-1.88,19,19,0,0,0,2.31-4.35,18.57,18.57,0,0,0,1.06-4.48,20.78,20.78,0,0,0,0-4.46,28,28,0,0,0-.77-4.21A15.88,15.88,0,0,0,226.52,12.48Z"/><path d="M104.15,22.06a5.74,5.74,0,0,1-.8,2.41,5.88,5.88,0,0,1-1.94,1.86,9.35,9.35,0,0,1-3.22,1.11,4.39,4.39,0,0,1-1.49,0A5.9,5.9,0,0,1,95.13,27a8.27,8.27,0,0,1-1.52-.87,7.84,7.84,0,0,1-1.3-1.21,7.56,7.56,0,0,1-1-1.51,5.11,5.11,0,0,1-.5-1.71,7.8,7.8,0,0,1,.09-2.57,5.52,5.52,0,0,1,1-2.14,6.2,6.2,0,0,1,1.92-1.63,10.22,10.22,0,0,1,2.91-1,5.31,5.31,0,0,1,2.38,0,6.4,6.4,0,0,1,2.16,1A7,7,0,0,1,103,17a6.8,6.8,0,0,1,1,2.31A8.46,8.46,0,0,1,104.15,22.06Zm-3.77,4.05a4.64,4.64,0,0,0,1.4-1.56,6.16,6.16,0,0,0,.71-2.05,7.78,7.78,0,0,0,0-2.26,7.89,7.89,0,0,0-.59-2.19,6,6,0,0,0-1.2-1.81A4.73,4.73,0,0,0,99,15.1a4.61,4.61,0,0,0-2.31-.2,4.84,4.84,0,0,0-2.16.83,4.94,4.94,0,0,0-1.42,1.57,5.91,5.91,0,0,0-.7,2,7.86,7.86,0,0,0,0,2.22A7.37,7.37,0,0,0,93,23.68a6,6,0,0,0,1.21,1.78A5,5,0,0,0,96,26.61a4.8,4.8,0,0,0,2.3.27A4.39,4.39,0,0,0,100.38,26.11Z"/><path d="M111.5,15c0,.22-.1.45-.14.7s0,.29-.09.45l-.08.41a1.23,1.23,0,0,0,0,.18,4.36,4.36,0,0,0-.41-.74,2.79,2.79,0,0,0-.46-.51,1,1,0,0,0-.57-.25,3.42,3.42,0,0,0-.64,0l-.67.07-.64.08c-.21,0-.41,0-.6,0v4.74h3.2a.78.78,0,0,0,.37-.15,1.74,1.74,0,0,0,.42-.34,7.24,7.24,0,0,0-.2,1c0,.32-.08.61-.11.87s0,.53-.06.84a2.53,2.53,0,0,0-.1-.79,1,1,0,0,0-.72-.72,2.27,2.27,0,0,0-.52-.09c-.2,0-.39,0-.6,0l-.61,0a3.6,3.6,0,0,1-.56,0,2.76,2.76,0,0,1-.51-.05v4.63a4.88,4.88,0,0,0,0,.68,1.32,1.32,0,0,0,.17.56,1,1,0,0,0,.45.38,1.92,1.92,0,0,0,.85.1l0,0c-.68,0-1.38.05-2.09.05s-1.44,0-2.22-.06l.42-.08.27-.06a.7.7,0,0,0,.36-.19.94.94,0,0,0,.2-.45,4.18,4.18,0,0,0,.07-.9V15.84a1.08,1.08,0,0,0-.14-.63.69.69,0,0,0-.34-.27l-.21-.1a.85.85,0,0,0-.24-.09,1.09,1.09,0,0,0-.25,0,.93.93,0,0,1-.3-.11h.53l1,0,1.81,0h3.07a3.14,3.14,0,0,0,.51-.05,1.84,1.84,0,0,0,.51-.19A5,5,0,0,1,111.5,15Z"/><path d="M119.64,66.79c-.2,0-.41.11-.61.18a4.21,4.21,0,0,0-1.78,1,2.69,2.69,0,0,0-.68,2V82.79a12.83,12.83,0,0,1-4,2,29.16,29.16,0,0,1-5.28,1.13,34.81,34.81,0,0,1-5.7.23,27.33,27.33,0,0,1-5.3-.73,15.75,15.75,0,0,1-5.67-2.71,18.81,18.81,0,0,1-4.25-4.52,21.71,21.71,0,0,1-2.66-5.68,22.81,22.81,0,0,1-1-6.23,20.36,20.36,0,0,1,.85-6.2,17.31,17.31,0,0,1,2.81-5.55,19.92,19.92,0,0,1,3.69-3.71,17.91,17.91,0,0,1,3.79-2.21,17,17,0,0,1,3.77-1.13c1.24-.22,2.43-.4,3.57-.53a21,21,0,0,1,3.66-.1c1.27.07,2.58.18,3.92.35s2.64.34,4,.53l4,.53a29.93,29.93,0,0,1-.5,4.39c-.27,1.42-.48,2.8-.65,4.14a9.65,9.65,0,0,0-1.56-4,9.77,9.77,0,0,0-2.73-2.64,11.32,11.32,0,0,0-3.52-1.45,17.91,17.91,0,0,0-7.66-.13,18,18,0,0,0-3.31,1,15.29,15.29,0,0,0-5.25,3.54,15.52,15.52,0,0,0-3.24,5A16.69,16.69,0,0,0,87.17,64a19,19,0,0,0,.88,6.18A20.18,20.18,0,0,0,91,76a21.19,21.19,0,0,0,5.14,5,12.67,12.67,0,0,0,3.29,1.48,22.49,22.49,0,0,0,4.52.91,16.5,16.5,0,0,0,4.62-.21,6.54,6.54,0,0,0,3.6-1.83V69.83a7.76,7.76,0,0,0-.08-1.21,1.84,1.84,0,0,0-.25-.7,1.19,1.19,0,0,0-.53-.38q-.34-.12-.9-.27l-.56-.13-.72-.15-.73-.17a1.66,1.66,0,0,1-.55-.25c2,0,4,0,6.2.05s4.27,0,6.35,0C120.11,66.68,119.84,66.74,119.64,66.79Z"/><path d="M154.35,84.49l-2.79,0c-1,0-2.06,0-3.14,0s-2.07,0-3.11,0l-2.86,0a2.18,2.18,0,0,1,.5-.23l.78-.3c.28-.12.53-.24.75-.35a1.27,1.27,0,0,0,.43-.33l-5.07-13.21h-11c-.07.2-.22.6-.45,1.18s-.51,1.28-.81,2.09S127,75.11,126.7,76s-.61,1.81-.88,2.66-.48,1.63-.65,2.31a7.05,7.05,0,0,0-.25,1.54,1.43,1.43,0,0,0,.83,1.43,7.06,7.06,0,0,0,2,.52v.11l-9.54-.21a3.19,3.19,0,0,1-.8.1,2.64,2.64,0,0,1-.91-.2l1.71-.55a7.78,7.78,0,0,0,2.39-1.2,4.71,4.71,0,0,0,1.68-2.31q3-8.45,6.1-16.78t6.35-16.82a3.09,3.09,0,0,1,.33.45c.18.27.43.65.73,1.16a15.23,15.23,0,0,1,.75,1.4c.3.77.59,1.53.85,2.29s.51,1.41.71,2q2.42,6.18,5.07,13t5.88,14.39a4.57,4.57,0,0,0,.78,1.11,5.3,5.3,0,0,0,1.13,1,4.77,4.77,0,0,0,1.6.65,14.4,14.4,0,0,0,1.76.3ZM134.41,54.36a1.22,1.22,0,0,0-.5.25c-.27.91-.58,1.92-.93,3s-.73,2.29-1.13,3.49-.8,2.42-1.21,3.64-.8,2.39-1.2,3.49h9.64Z"/><path d="M196.52,84.75a42.37,42.37,0,0,1-5.17-.1,7,7,0,0,0,.25-1.8q0-1.21,0-2.79c0-1.06-.1-2.22-.2-3.49s-.22-2.58-.35-3.92q-.41-4-.88-8.19t-.73-7.68q-1.31,2.46-2.84,5.48c-1,2-2,4-3,6.1s-1.94,4.06-2.86,6l-2.46,5.2q-1.08,2.28-2.34,5-1.6-2.5-2.69-4.37c-.72-1.23-1.47-2.54-2.26-3.91s-1.43-2.6-1.93-3.67l-3.16-7q-1.71-3.8-4.22-8.67-.3,3.27-.76,6.45t-.85,6.41q-.41,3.27-.55,6.48a52,52,0,0,0,.1,6.48.8.8,0,0,0,.45.62,6.23,6.23,0,0,0,1,.43,3.29,3.29,0,0,0,.6.15,3,3,0,0,1,.55.15l.53.2a1.93,1.93,0,0,1,.48.35c-.88,0-1.91,0-3.12,0l-3.47,0c-1.1,0-2.42,0-4-.05a13.16,13.16,0,0,1,2.06-.6,1.63,1.63,0,0,0,.7-.25,1.08,1.08,0,0,0,.4-.75c.44-2.21.84-4.77,1.21-7.66s.72-6,1.08-9.19.7-6.54,1-9.92.71-6.65,1.08-9.8A10.17,10.17,0,0,1,161.39,48c.49.77,1,1.73,1.63,2.87s1.27,2.42,2,3.84,1.46,2.94,2.23,4.54,1.57,3.25,2.39,4.92,1.63,3.34,2.43,5L174.4,74q1.13,2.34,2.18,4.3c.51-1.07,1.08-2.3,1.74-3.67l2.06-4.37c.71-1.54,1.45-3.12,2.2-4.74s1.52-3.25,2.29-4.85,1.46-3.16,2.19-4.65,1.38-2.86,2-4.11,1.18-2.37,1.69-3.32.92-1.68,1.25-2.19q.6,4.78,1.06,8.64t.75,7q.3,3.09.53,5.5c.15,1.61.27,3,.37,4.32s.21,2.39.33,3.36.24,1.86.38,2.66a21.21,21.21,0,0,0,.47,2.21,14.76,14.76,0,0,0,.73,2,2.64,2.64,0,0,0,.66,1,3.2,3.2,0,0,0,.87.55,4.91,4.91,0,0,0,1,.3l1.08.2a8.72,8.72,0,0,1,1.6.55C200,84.65,198.26,84.69,196.52,84.75Z"/><path d="M223.89,80.45q-.15,1-.3,2c-.1.65-.22,1.45-.35,2.39a1,1,0,0,0-.65-.21.42.42,0,0,1-.21.06.14.14,0,0,0-.1,0v0l-6.9-.1-4.77-.08c-1.29,0-2.34,0-3.14,0s-1.49,0-2.06,0-1.08,0-1.53.1l-1.48.18v-.1a4.24,4.24,0,0,0,2-.53,3.76,3.76,0,0,0,1.23-1.18,4.42,4.42,0,0,0,.61-1.56,9.23,9.23,0,0,0,.14-1.61V51.2a2.6,2.6,0,0,0-.65-1.89,4.27,4.27,0,0,0-1.43-1,9.38,9.38,0,0,0-2.13-.53v-.1h19.73a.83.83,0,0,0,.43-.1,3.54,3.54,0,0,1,.43-.2l.4-.2c-.07.47-.17,1.1-.3,1.88s-.28,1.55-.43,2.29-.34,1.64-.58,2.71a6.68,6.68,0,0,0-.45-2.11,3.39,3.39,0,0,0-.93-1.35,3.49,3.49,0,0,0-1.3-.73,9.34,9.34,0,0,0-1.54-.33,10.15,10.15,0,0,0-1.75,0l-1.81.1c-.6,0-1.19,0-1.76,0s-1.12-.06-1.66-.13V64.15c1.11.1,2.08.16,2.92.16s1.72,0,2.66-.1a14.44,14.44,0,0,0,2.56-.41c.33-.06.63-.13.88-.2a3.3,3.3,0,0,0,.83-.35l.55-.3a2.92,2.92,0,0,0,.4-.25,2.35,2.35,0,0,0,.43-.45c.15-.2.36-.5.63-.91-.07.51-.15,1.15-.23,1.94s-.17,1.6-.25,2.43-.18,1.65-.28,2.44-.17,1.45-.2,2a2.15,2.15,0,0,1-.4-.7,2.08,2.08,0,0,1-.25-.81q-.15-.45-.33-.9a1.91,1.91,0,0,0-.52-.75,2.7,2.7,0,0,0-1.44-.58c-.68-.12-1.48-.21-2.38-.28s-1.79-.1-2.76-.1h-2.77V80.33a6.31,6.31,0,0,0,2.87,2.48,9.25,9.25,0,0,0,4.09.91,7.68,7.68,0,0,0,4-1.16,5.61,5.61,0,0,0,2.43-3.74h.1C224.09,79.22,224,79.77,223.89,80.45Z"/><path d="M247.1,76a8.15,8.15,0,0,1-1.31,3.79,10.52,10.52,0,0,1-2.89,2.91,17.49,17.49,0,0,1-3.81,2,16.24,16.24,0,0,1-4.1,1,11,11,0,0,1-3.69-.2A5.42,5.42,0,0,1,228.67,84a3.55,3.55,0,0,1-.91-2.79,10.4,10.4,0,0,1,.18-1.21c.08-.4.17-.8.28-1.2s.19-.79.27-1.16.16-.73.23-1.1h.1a5.81,5.81,0,0,0,1.1,4.44,7,7,0,0,0,3.59,2.44,8.72,8.72,0,0,0,4.57.1,7.39,7.39,0,0,0,4-2.51,5.71,5.71,0,0,0,1.3-2.54,5.3,5.3,0,0,0-.12-2.56,9.5,9.5,0,0,0-1.23-2.56A21.79,21.79,0,0,0,240,70.78c-.77-.87-1.62-1.74-2.54-2.61l-2.73-2.61c-.91-.87-1.77-1.75-2.59-2.64A22.22,22.22,0,0,1,230,60.24a8.66,8.66,0,0,1-1.73-4.35,6.69,6.69,0,0,1,.8-3.71,8.19,8.19,0,0,1,2.77-2.89A15.06,15.06,0,0,1,236,47.41a17.83,17.83,0,0,1,4.92-.71,18.93,18.93,0,0,1,5.17.68,16.42,16.42,0,0,1-.3,1.93,13.28,13.28,0,0,0-.25,1.89,13.81,13.81,0,0,0,.1,1.76,1.66,1.66,0,0,1-.45,1.4,5.78,5.78,0,0,0-.8-3.09,5.91,5.91,0,0,0-2.09-2,7.43,7.43,0,0,0-2.81-.9,6.91,6.91,0,0,0-2.94.28A6.25,6.25,0,0,0,234,50.19a5.8,5.8,0,0,0-1.51,2.87,6.15,6.15,0,0,0,0,2.63,7.44,7.44,0,0,0,1,2.36,13.3,13.3,0,0,0,1.73,2.21c.69.72,1.43,1.43,2.24,2.14s1.68,1.39,2.53,2.08a30,30,0,0,1,2.44,2.19A20.53,20.53,0,0,1,244.61,69a11.44,11.44,0,0,1,1.58,2.51A8.81,8.81,0,0,1,247.1,76Z"/><path d="M65.3,17.82c-.76.61-2.65-1.8-1.76-2.21C65.49,14.71,66.07,17.22,65.3,17.82Z"/></g></g></svg>