<svg xmlns="http://www.w3.org/2000/svg" xmlns:xlink="http://www.w3.org/1999/xlink" viewBox="0 0 52.88 52.88"><defs><style>.cls-1,.cls-2{fill:none;}.cls-2{stroke:#000;stroke-miterlimit:10;}.cls-3{fill:#a2a9aa;}.cls-4{fill:#1b1c1c;}.cls-5{fill:#525454;}.cls-6{fill:url(#SOwn_pattern);}</style><pattern id="SOwn_pattern" data-name="SOwn pattern" width="180.57" height="203.42" patternTransform="translate(36.45 109.33) scale(0.03)" patternUnits="userSpaceOnUse" viewBox="0 0 180.57 203.42"><rect class="cls-1" width="180.57" height="203.42"/><path d="M134.41,248.82c12,0,21.78-21.88,21.78-48.88H112.63C112.63,226.94,122.38,248.82,134.41,248.82Z"/><path d="M47.3,248.82c12,0,21.78-21.88,21.78-48.88H25.52C25.52,226.94,35.27,248.82,47.3,248.82Z"/><path d="M202.67,50.33c0-25.08-10.79-45.41-24.08-45.41V95.73C191.88,95.73,202.67,75.4,202.67,50.33Z"/><path d="M202.35,148.65c0-25.08-10.64-45.41-23.76-45.41v90.81C191.71,194.05,202.35,173.72,202.35,148.65Z"/><path class="cls-2" d="M69.08,50.57C69.08,75.65,78.83,96,90.85,96s21.78-20.33,21.78-45.41-9.75-45.4-21.78-45.4S69.08,25.5,69.08,50.57Zm0,52.42c0-25.08-9.76-45.4-21.78-45.4S25.52,77.91,25.52,103s9.75,45.4,21.78,45.4S69.08,128.06,69.08,103Zm43.55,45.4c0-25.07-9.75-45.4-21.78-45.4s-21.77,20.33-21.77,45.4,9.75,45.41,21.77,45.41S112.63,173.47,112.63,148.39Zm43.56-49.46c0-25.08-9.75-45.41-21.78-45.41s-21.78,20.33-21.78,45.41,9.75,45.4,21.78,45.4S156.19,124,156.19,98.93Z"/><ellipse class="cls-3" cx="90.85" cy="50.57" rx="21.78" ry="45.4"/><ellipse cx="90.85" cy="148.39" rx="21.78" ry="45.4"/><ellipse class="cls-4" cx="134.41" cy="98.93" rx="21.78" ry="45.4"/><ellipse class="cls-5" cx="47.3" cy="102.99" rx="21.78" ry="45.4"/><path d="M134.41,45.4c12,0,21.78-21.88,21.78-48.87H112.63C112.63,23.52,122.38,45.4,134.41,45.4Z"/><path d="M134.41,152.45c-12,0-21.78,21.43-21.78,47.85,0,1,0,2.09.05,3.12h43.46c0-1,.05-2.07.05-3.12C156.19,173.88,146.44,152.45,134.41,152.45Z"/><path d="M47.3,155.41c-12,0-21.78,21.49-21.78,48H69.08C69.08,176.9,59.32,155.41,47.3,155.41Z"/><path d="M47.3,45.4c12,0,21.78-21.88,21.78-48.87H25.52C25.52,23.52,35.27,45.4,47.3,45.4Z"/><path d="M158.47,50.33c0,25.07,9.89,45.4,22.1,45.4V4.92C168.36,4.92,158.47,25.25,158.47,50.33Z"/><path d="M156.19,148.65c0,25.07,10.92,45.4,24.38,45.4V103.24C167.11,103.24,156.19,123.57,156.19,148.65Z"/><path d="M22.1,50.33C22.1,25.25,11.32,4.92-2,4.92V95.73C11.32,95.73,22.1,75.4,22.1,50.33Z"/><path d="M21.78,148.65c0-25.08-10.64-45.41-23.76-45.41v90.81C11.14,194.05,21.78,173.72,21.78,148.65Z"/></pattern></defs><title>pattern2-1</title><g id="Layer_2" data-name="Layer 2"><g id="Layer_1-2" data-name="Layer 1"><rect class="cls-6" width="52.88" height="52.88"/></g></g></svg>